<mxfile host="app.diagrams.net" modified="2021-05-01T17:38:39.770Z" agent="5.0 (Windows NT 10.0; Win64; x64) AppleWebKit/537.36 (KHTML, like Gecko) Chrome/90.0.4430.93 Safari/537.36" etag="H-akIxY9y6EQM4uZ5AkZ" version="14.6.9" type="github">
  <diagram id="iz5AJyZXD_v62eKVLk-E" name="Page-1">
    <mxGraphModel dx="3700" dy="2539" grid="1" gridSize="10" guides="1" tooltips="1" connect="1" arrows="1" fold="1" page="1" pageScale="1" pageWidth="827" pageHeight="1169" math="0" shadow="0">
      <root>
        <mxCell id="0" />
        <mxCell id="1" parent="0" />
        <mxCell id="B0L_o82z-orvweYoAsNA-215" value="Kullanıcı" style="shape=umlActor;verticalLabelPosition=bottom;verticalAlign=top;html=1;outlineConnect=0;" vertex="1" parent="1">
          <mxGeometry x="-267" y="-390" width="90" height="200" as="geometry" />
        </mxCell>
        <mxCell id="B0L_o82z-orvweYoAsNA-216" value="Yakındaki Kütüphaneler Ekranını Görüntüle" style="strokeWidth=2;html=1;shape=mxgraph.flowchart.start_1;whiteSpace=wrap;" vertex="1" parent="1">
          <mxGeometry x="153" y="-820" width="146" height="60" as="geometry" />
        </mxCell>
        <mxCell id="B0L_o82z-orvweYoAsNA-217" value="Haberler Ekranını Görüntüle" style="strokeWidth=2;html=1;shape=mxgraph.flowchart.start_1;whiteSpace=wrap;" vertex="1" parent="1">
          <mxGeometry x="153" y="-750" width="146" height="60" as="geometry" />
        </mxCell>
        <mxCell id="B0L_o82z-orvweYoAsNA-218" value="Seçilen Haberin Ayrıntı Ekranını Görüntüle" style="strokeWidth=2;html=1;shape=mxgraph.flowchart.start_1;whiteSpace=wrap;" vertex="1" parent="1">
          <mxGeometry x="153" y="-680" width="146" height="60" as="geometry" />
        </mxCell>
        <mxCell id="B0L_o82z-orvweYoAsNA-219" value="Sepetim Ekranını Görüntüle" style="strokeWidth=2;html=1;shape=mxgraph.flowchart.start_1;whiteSpace=wrap;" vertex="1" parent="1">
          <mxGeometry x="153" y="-610" width="146" height="60" as="geometry" />
        </mxCell>
        <mxCell id="B0L_o82z-orvweYoAsNA-220" value="Sepeti Onayla Ekranını Görüntüle" style="strokeWidth=2;html=1;shape=mxgraph.flowchart.start_1;whiteSpace=wrap;" vertex="1" parent="1">
          <mxGeometry x="153" y="-540" width="146" height="60" as="geometry" />
        </mxCell>
        <mxCell id="B0L_o82z-orvweYoAsNA-221" value="Adres Güncelle Ekranını Görüntüle" style="strokeWidth=2;html=1;shape=mxgraph.flowchart.start_1;whiteSpace=wrap;" vertex="1" parent="1">
          <mxGeometry x="153" y="-470" width="146" height="60" as="geometry" />
        </mxCell>
        <mxCell id="B0L_o82z-orvweYoAsNA-222" value="Seçilen Kitabın Ayrıntı Ekranını Görüntüle" style="strokeWidth=2;html=1;shape=mxgraph.flowchart.start_1;whiteSpace=wrap;" vertex="1" parent="1">
          <mxGeometry x="153" y="-400" width="146" height="60" as="geometry" />
        </mxCell>
        <mxCell id="B0L_o82z-orvweYoAsNA-223" value="Detaylı Arama Ekranını Görüntüle" style="strokeWidth=2;html=1;shape=mxgraph.flowchart.start_1;whiteSpace=wrap;" vertex="1" parent="1">
          <mxGeometry x="153" y="-330" width="146" height="60" as="geometry" />
        </mxCell>
        <mxCell id="B0L_o82z-orvweYoAsNA-224" value="Blog Ekranını Görüntüle" style="strokeWidth=2;html=1;shape=mxgraph.flowchart.start_1;whiteSpace=wrap;" vertex="1" parent="1">
          <mxGeometry x="153" y="-250" width="146" height="60" as="geometry" />
        </mxCell>
        <mxCell id="B0L_o82z-orvweYoAsNA-225" value="YKS Kitapları Ekranını Görüntüle" style="strokeWidth=2;html=1;shape=mxgraph.flowchart.start_1;whiteSpace=wrap;" vertex="1" parent="1">
          <mxGeometry x="-827" y="-795" width="146" height="60" as="geometry" />
        </mxCell>
        <mxCell id="B0L_o82z-orvweYoAsNA-226" value="Dergiler Ekranını Görüntüle" style="strokeWidth=2;html=1;shape=mxgraph.flowchart.start_1;whiteSpace=wrap;" vertex="1" parent="1">
          <mxGeometry x="-826" y="-725" width="146" height="60" as="geometry" />
        </mxCell>
        <mxCell id="B0L_o82z-orvweYoAsNA-227" value="Seçilen Derginin Ayrıntı Ekranını Göster" style="strokeWidth=2;html=1;shape=mxgraph.flowchart.start_1;whiteSpace=wrap;" vertex="1" parent="1">
          <mxGeometry x="-826" y="-655" width="146" height="60" as="geometry" />
        </mxCell>
        <mxCell id="B0L_o82z-orvweYoAsNA-228" value="Tüm Satıcılar Ekranını&lt;br&gt;&amp;nbsp;Görüntüle" style="strokeWidth=2;html=1;shape=mxgraph.flowchart.start_1;whiteSpace=wrap;" vertex="1" parent="1">
          <mxGeometry x="-826" y="-585" width="146" height="60" as="geometry" />
        </mxCell>
        <mxCell id="B0L_o82z-orvweYoAsNA-229" value="Yazarlar Ekranını&amp;nbsp;&lt;br&gt;Görüntüle" style="strokeWidth=2;html=1;shape=mxgraph.flowchart.start_1;whiteSpace=wrap;" vertex="1" parent="1">
          <mxGeometry x="-826" y="-515" width="146" height="60" as="geometry" />
        </mxCell>
        <mxCell id="B0L_o82z-orvweYoAsNA-230" value="PDF İndir Ekranını Görüntüle" style="strokeWidth=2;html=1;shape=mxgraph.flowchart.start_1;whiteSpace=wrap;" vertex="1" parent="1">
          <mxGeometry x="-826" y="-445" width="146" height="60" as="geometry" />
        </mxCell>
        <mxCell id="B0L_o82z-orvweYoAsNA-231" value="Kitap Özetleri Ekranını Görüntüle" style="strokeWidth=2;html=1;shape=mxgraph.flowchart.start_1;whiteSpace=wrap;" vertex="1" parent="1">
          <mxGeometry x="-826" y="-375" width="146" height="60" as="geometry" />
        </mxCell>
        <mxCell id="B0L_o82z-orvweYoAsNA-232" value="Seçilen Kitabın Ayrıntı Ekranını Görüntüle" style="strokeWidth=2;html=1;shape=mxgraph.flowchart.start_1;whiteSpace=wrap;" vertex="1" parent="1">
          <mxGeometry x="-827" y="-75" width="146" height="60" as="geometry" />
        </mxCell>
        <mxCell id="B0L_o82z-orvweYoAsNA-233" value="Kitaplar Ekranını Görüntüle" style="strokeWidth=2;html=1;shape=mxgraph.flowchart.start_1;whiteSpace=wrap;" vertex="1" parent="1">
          <mxGeometry x="-826" y="-225" width="146" height="60" as="geometry" />
        </mxCell>
        <mxCell id="B0L_o82z-orvweYoAsNA-234" value="Koleksiyon Ekranını&lt;br&gt;&amp;nbsp;Görüntüle" style="strokeWidth=2;html=1;shape=mxgraph.flowchart.start_1;whiteSpace=wrap;" vertex="1" parent="1">
          <mxGeometry x="-826" y="-305" width="146" height="60" as="geometry" />
        </mxCell>
        <mxCell id="B0L_o82z-orvweYoAsNA-235" value="Seçilen Türe Ait Kitap Ekranını Görüntüle" style="strokeWidth=2;html=1;shape=mxgraph.flowchart.start_1;whiteSpace=wrap;" vertex="1" parent="1">
          <mxGeometry x="-827" y="-155" width="146" height="60" as="geometry" />
        </mxCell>
        <mxCell id="B0L_o82z-orvweYoAsNA-236" value="Tüm Notlar Ekranını Görüntüle" style="strokeWidth=2;html=1;shape=mxgraph.flowchart.start_1;whiteSpace=wrap;" vertex="1" parent="1">
          <mxGeometry x="-826" y="-5" width="146" height="60" as="geometry" />
        </mxCell>
        <mxCell id="B0L_o82z-orvweYoAsNA-237" value="Notu Düzenle Ekranını Görüntüle" style="strokeWidth=2;html=1;shape=mxgraph.flowchart.start_1;whiteSpace=wrap;" vertex="1" parent="1">
          <mxGeometry x="-827" y="75" width="146" height="60" as="geometry" />
        </mxCell>
        <mxCell id="B0L_o82z-orvweYoAsNA-238" value="Hesabım Ekranını Görüntüle" style="strokeWidth=2;html=1;shape=mxgraph.flowchart.start_1;whiteSpace=wrap;" vertex="1" parent="1">
          <mxGeometry x="153" y="-100" width="146" height="60" as="geometry" />
        </mxCell>
        <mxCell id="B0L_o82z-orvweYoAsNA-239" value="Seçilen Blog Ayrıntı Ekranını Görüntüle" style="strokeWidth=2;html=1;shape=mxgraph.flowchart.start_1;whiteSpace=wrap;" vertex="1" parent="1">
          <mxGeometry x="153" y="-170" width="146" height="60" as="geometry" />
        </mxCell>
        <mxCell id="B0L_o82z-orvweYoAsNA-240" value="Cüzdanım Ekranını Görüntüle" style="strokeWidth=2;html=1;shape=mxgraph.flowchart.start_1;whiteSpace=wrap;" vertex="1" parent="1">
          <mxGeometry x="153" y="-30" width="146" height="60" as="geometry" />
        </mxCell>
        <mxCell id="B0L_o82z-orvweYoAsNA-241" value="Kullanıcı Bilgileri Ekranını Görüntüle" style="strokeWidth=2;html=1;shape=mxgraph.flowchart.start_1;whiteSpace=wrap;" vertex="1" parent="1">
          <mxGeometry x="153" y="50" width="146" height="60" as="geometry" />
        </mxCell>
        <mxCell id="B0L_o82z-orvweYoAsNA-242" value="&amp;nbsp;Yardım Ekranını Görüntüle" style="strokeWidth=2;html=1;shape=mxgraph.flowchart.start_1;whiteSpace=wrap;" vertex="1" parent="1">
          <mxGeometry x="153" y="140" width="146" height="60" as="geometry" />
        </mxCell>
        <mxCell id="B0L_o82z-orvweYoAsNA-243" value="Kitap Dinle Ekranını Görüntüle" style="strokeWidth=2;html=1;shape=mxgraph.flowchart.start_1;whiteSpace=wrap;" vertex="1" parent="1">
          <mxGeometry x="153" y="220" width="146" height="60" as="geometry" />
        </mxCell>
        <mxCell id="B0L_o82z-orvweYoAsNA-244" value="&amp;nbsp;Yazarın Önerdiği Kitapların Ekranını Görüntüle" style="strokeWidth=2;html=1;shape=mxgraph.flowchart.start_1;whiteSpace=wrap;" vertex="1" parent="1">
          <mxGeometry x="-827" y="245" width="146" height="60" as="geometry" />
        </mxCell>
        <mxCell id="B0L_o82z-orvweYoAsNA-245" value="Öneri Kitaplar Ekranını Görüntüle" style="strokeWidth=2;html=1;shape=mxgraph.flowchart.start_1;whiteSpace=wrap;" vertex="1" parent="1">
          <mxGeometry x="-827" y="165" width="146" height="60" as="geometry" />
        </mxCell>
        <mxCell id="B0L_o82z-orvweYoAsNA-246" value="Kitaptan Sözler Ekranını Görüntüle" style="strokeWidth=2;html=1;shape=mxgraph.flowchart.start_1;whiteSpace=wrap;" vertex="1" parent="1">
          <mxGeometry x="-827" y="-875" width="146" height="60" as="geometry" />
        </mxCell>
        <mxCell id="B0L_o82z-orvweYoAsNA-247" value="Çocuk Kitapları Ekranını Görüntüle" style="strokeWidth=2;html=1;shape=mxgraph.flowchart.start_1;whiteSpace=wrap;" vertex="1" parent="1">
          <mxGeometry x="-826" y="-955" width="146" height="60" as="geometry" />
        </mxCell>
        <mxCell id="B0L_o82z-orvweYoAsNA-248" value="İkinci El Kitaplar Ekranını Görüntüle" style="strokeWidth=2;html=1;shape=mxgraph.flowchart.start_1;whiteSpace=wrap;" vertex="1" parent="1">
          <mxGeometry x="153" y="-900" width="146" height="60" as="geometry" />
        </mxCell>
        <mxCell id="B0L_o82z-orvweYoAsNA-249" value="Bize Ulaşın Ekranını Görüntüle" style="strokeWidth=2;html=1;shape=mxgraph.flowchart.start_1;whiteSpace=wrap;" vertex="1" parent="1">
          <mxGeometry x="153" y="-980" width="146" height="60" as="geometry" />
        </mxCell>
        <mxCell id="B0L_o82z-orvweYoAsNA-250" value="Oturum Aç Ekranını Görüntüle" style="strokeWidth=2;html=1;shape=mxgraph.flowchart.start_1;whiteSpace=wrap;" vertex="1" parent="1">
          <mxGeometry x="-257" y="-1130" width="146" height="60" as="geometry" />
        </mxCell>
        <mxCell id="B0L_o82z-orvweYoAsNA-251" value="Kayıt Ol Ekranını Görüntüle" style="strokeWidth=2;html=1;shape=mxgraph.flowchart.start_1;whiteSpace=wrap;" vertex="1" parent="1">
          <mxGeometry x="-417" y="-1130" width="146" height="60" as="geometry" />
        </mxCell>
        <mxCell id="B0L_o82z-orvweYoAsNA-252" value="Sık Sorulan Sorular Ekranını Görüntüle" style="strokeWidth=2;html=1;shape=mxgraph.flowchart.start_1;whiteSpace=wrap;" vertex="1" parent="1">
          <mxGeometry x="-826" y="-1045" width="146" height="60" as="geometry" />
        </mxCell>
        <mxCell id="B0L_o82z-orvweYoAsNA-253" value="&amp;nbsp;İade Şartları Ekranını Görüntüle" style="strokeWidth=2;html=1;shape=mxgraph.flowchart.start_1;whiteSpace=wrap;" vertex="1" parent="1">
          <mxGeometry x="-607" y="-1130" width="146" height="60" as="geometry" />
        </mxCell>
        <mxCell id="B0L_o82z-orvweYoAsNA-254" value="Son Eklenen Kitaplar Ekranını Görüntüle" style="strokeWidth=2;html=1;shape=mxgraph.flowchart.start_1;whiteSpace=wrap;" vertex="1" parent="1">
          <mxGeometry x="143" y="-1070" width="146" height="60" as="geometry" />
        </mxCell>
        <mxCell id="B0L_o82z-orvweYoAsNA-255" value="Çok Satılan Kitaplar Ekranını Görüntüle" style="strokeWidth=2;html=1;shape=mxgraph.flowchart.start_1;whiteSpace=wrap;" vertex="1" parent="1">
          <mxGeometry x="-86" y="-1130" width="146" height="60" as="geometry" />
        </mxCell>
        <mxCell id="B0L_o82z-orvweYoAsNA-256" value="Seçilen Yayınevine Ait Kitaplar Ekranını Görüntüle" style="strokeWidth=2;html=1;shape=mxgraph.flowchart.start_1;whiteSpace=wrap;" vertex="1" parent="1">
          <mxGeometry x="-563" y="375" width="146" height="60" as="geometry" />
        </mxCell>
        <mxCell id="B0L_o82z-orvweYoAsNA-257" value="Yayınevleri Ekranını Görüntüle" style="strokeWidth=2;html=1;shape=mxgraph.flowchart.start_1;whiteSpace=wrap;" vertex="1" parent="1">
          <mxGeometry x="-827" y="315" width="146" height="60" as="geometry" />
        </mxCell>
        <mxCell id="B0L_o82z-orvweYoAsNA-258" value="Favorilerim Ekranını Görüntüle" style="strokeWidth=2;html=1;shape=mxgraph.flowchart.start_1;whiteSpace=wrap;" vertex="1" parent="1">
          <mxGeometry x="-367" y="375" width="146" height="60" as="geometry" />
        </mxCell>
        <mxCell id="B0L_o82z-orvweYoAsNA-259" value="Sipariş Detayları Ekranını Görüntüle" style="strokeWidth=2;html=1;shape=mxgraph.flowchart.start_1;whiteSpace=wrap;" vertex="1" parent="1">
          <mxGeometry x="23" y="375" width="146" height="60" as="geometry" />
        </mxCell>
        <mxCell id="B0L_o82z-orvweYoAsNA-260" value="Siparişlerim Ekranını Görüntüle" style="strokeWidth=2;html=1;shape=mxgraph.flowchart.start_1;whiteSpace=wrap;" vertex="1" parent="1">
          <mxGeometry x="153" y="290" width="146" height="60" as="geometry" />
        </mxCell>
        <mxCell id="B0L_o82z-orvweYoAsNA-261" value="İade Talebi Ekranını Görüntüle" style="strokeWidth=2;html=1;shape=mxgraph.flowchart.start_1;whiteSpace=wrap;" vertex="1" parent="1">
          <mxGeometry x="-177" y="375" width="146" height="60" as="geometry" />
        </mxCell>
        <mxCell id="B0L_o82z-orvweYoAsNA-262" value="" style="endArrow=none;html=1;entryX=0.978;entryY=0.671;entryDx=0;entryDy=0;entryPerimeter=0;exitX=0;exitY=0.3333333333333333;exitDx=0;exitDy=0;exitPerimeter=0;" edge="1" parent="1" source="B0L_o82z-orvweYoAsNA-215" target="B0L_o82z-orvweYoAsNA-230">
          <mxGeometry width="50" height="50" relative="1" as="geometry">
            <mxPoint x="-277" y="-370" as="sourcePoint" />
            <mxPoint x="-427" y="-410" as="targetPoint" />
          </mxGeometry>
        </mxCell>
        <mxCell id="B0L_o82z-orvweYoAsNA-263" value="" style="endArrow=none;html=1;entryX=1;entryY=0.5;entryDx=0;entryDy=0;entryPerimeter=0;exitX=0;exitY=0.3333333333333333;exitDx=0;exitDy=0;exitPerimeter=0;" edge="1" parent="1" source="B0L_o82z-orvweYoAsNA-215" target="B0L_o82z-orvweYoAsNA-231">
          <mxGeometry width="50" height="50" relative="1" as="geometry">
            <mxPoint x="-267" y="-360" as="sourcePoint" />
            <mxPoint x="-417" y="-400" as="targetPoint" />
          </mxGeometry>
        </mxCell>
        <mxCell id="B0L_o82z-orvweYoAsNA-264" value="" style="endArrow=none;html=1;exitX=0;exitY=0.3333333333333333;exitDx=0;exitDy=0;exitPerimeter=0;entryX=1;entryY=0.5;entryDx=0;entryDy=0;entryPerimeter=0;" edge="1" parent="1" source="B0L_o82z-orvweYoAsNA-215" target="B0L_o82z-orvweYoAsNA-237">
          <mxGeometry width="50" height="50" relative="1" as="geometry">
            <mxPoint x="-657" y="-520" as="sourcePoint" />
            <mxPoint x="-807" y="-560" as="targetPoint" />
          </mxGeometry>
        </mxCell>
        <mxCell id="B0L_o82z-orvweYoAsNA-265" value="" style="endArrow=none;html=1;entryX=1;entryY=0.5;entryDx=0;entryDy=0;entryPerimeter=0;exitX=0;exitY=0.3333333333333333;exitDx=0;exitDy=0;exitPerimeter=0;" edge="1" parent="1" source="B0L_o82z-orvweYoAsNA-215" target="B0L_o82z-orvweYoAsNA-236">
          <mxGeometry width="50" height="50" relative="1" as="geometry">
            <mxPoint x="-647" y="-510" as="sourcePoint" />
            <mxPoint x="-797" y="-550" as="targetPoint" />
          </mxGeometry>
        </mxCell>
        <mxCell id="B0L_o82z-orvweYoAsNA-266" value="" style="endArrow=none;html=1;exitX=1;exitY=0.5;exitDx=0;exitDy=0;exitPerimeter=0;entryX=0;entryY=0.3333333333333333;entryDx=0;entryDy=0;entryPerimeter=0;" edge="1" parent="1" source="B0L_o82z-orvweYoAsNA-232" target="B0L_o82z-orvweYoAsNA-215">
          <mxGeometry width="50" height="50" relative="1" as="geometry">
            <mxPoint x="-637" y="-500" as="sourcePoint" />
            <mxPoint x="-787" y="-540" as="targetPoint" />
          </mxGeometry>
        </mxCell>
        <mxCell id="B0L_o82z-orvweYoAsNA-267" value="" style="endArrow=none;html=1;entryX=1;entryY=0.5;entryDx=0;entryDy=0;entryPerimeter=0;exitX=0;exitY=0.3333333333333333;exitDx=0;exitDy=0;exitPerimeter=0;" edge="1" parent="1" source="B0L_o82z-orvweYoAsNA-215" target="B0L_o82z-orvweYoAsNA-235">
          <mxGeometry width="50" height="50" relative="1" as="geometry">
            <mxPoint x="-627" y="-490" as="sourcePoint" />
            <mxPoint x="-777" y="-530" as="targetPoint" />
          </mxGeometry>
        </mxCell>
        <mxCell id="B0L_o82z-orvweYoAsNA-268" value="" style="endArrow=none;html=1;exitX=1;exitY=0.5;exitDx=0;exitDy=0;exitPerimeter=0;entryX=0;entryY=0.3333333333333333;entryDx=0;entryDy=0;entryPerimeter=0;" edge="1" parent="1" source="B0L_o82z-orvweYoAsNA-233" target="B0L_o82z-orvweYoAsNA-215">
          <mxGeometry width="50" height="50" relative="1" as="geometry">
            <mxPoint x="-617" y="-480" as="sourcePoint" />
            <mxPoint x="-767" y="-520" as="targetPoint" />
          </mxGeometry>
        </mxCell>
        <mxCell id="B0L_o82z-orvweYoAsNA-269" value="" style="endArrow=none;html=1;entryX=1;entryY=0.5;entryDx=0;entryDy=0;entryPerimeter=0;exitX=0;exitY=0.3333333333333333;exitDx=0;exitDy=0;exitPerimeter=0;" edge="1" parent="1" source="B0L_o82z-orvweYoAsNA-215" target="B0L_o82z-orvweYoAsNA-234">
          <mxGeometry width="50" height="50" relative="1" as="geometry">
            <mxPoint x="-607" y="-470" as="sourcePoint" />
            <mxPoint x="-757" y="-510" as="targetPoint" />
          </mxGeometry>
        </mxCell>
        <mxCell id="B0L_o82z-orvweYoAsNA-270" value="" style="endArrow=none;html=1;exitX=0.986;exitY=0.667;exitDx=0;exitDy=0;exitPerimeter=0;entryX=0;entryY=0.3333333333333333;entryDx=0;entryDy=0;entryPerimeter=0;" edge="1" parent="1" source="B0L_o82z-orvweYoAsNA-227" target="B0L_o82z-orvweYoAsNA-215">
          <mxGeometry width="50" height="50" relative="1" as="geometry">
            <mxPoint x="-597" y="-460" as="sourcePoint" />
            <mxPoint x="-747" y="-500" as="targetPoint" />
          </mxGeometry>
        </mxCell>
        <mxCell id="B0L_o82z-orvweYoAsNA-271" value="" style="endArrow=none;html=1;entryX=0.947;entryY=0.719;entryDx=0;entryDy=0;entryPerimeter=0;exitX=0;exitY=0.3333333333333333;exitDx=0;exitDy=0;exitPerimeter=0;" edge="1" parent="1" source="B0L_o82z-orvweYoAsNA-215" target="B0L_o82z-orvweYoAsNA-228">
          <mxGeometry width="50" height="50" relative="1" as="geometry">
            <mxPoint x="-587" y="-450" as="sourcePoint" />
            <mxPoint x="-737" y="-490" as="targetPoint" />
          </mxGeometry>
        </mxCell>
        <mxCell id="B0L_o82z-orvweYoAsNA-272" value="" style="endArrow=none;html=1;entryX=1;entryY=0.5;entryDx=0;entryDy=0;entryPerimeter=0;exitX=0;exitY=0.3333333333333333;exitDx=0;exitDy=0;exitPerimeter=0;" edge="1" parent="1" source="B0L_o82z-orvweYoAsNA-215" target="B0L_o82z-orvweYoAsNA-229">
          <mxGeometry width="50" height="50" relative="1" as="geometry">
            <mxPoint x="-261" y="-440" as="sourcePoint" />
            <mxPoint x="-411" y="-480" as="targetPoint" />
          </mxGeometry>
        </mxCell>
        <mxCell id="B0L_o82z-orvweYoAsNA-273" value="" style="endArrow=none;html=1;entryX=0.855;entryY=0.855;entryDx=0;entryDy=0;entryPerimeter=0;exitX=0.5;exitY=0;exitDx=0;exitDy=0;exitPerimeter=0;" edge="1" parent="1" source="B0L_o82z-orvweYoAsNA-215" target="B0L_o82z-orvweYoAsNA-253">
          <mxGeometry width="50" height="50" relative="1" as="geometry">
            <mxPoint x="-142" y="-740" as="sourcePoint" />
            <mxPoint x="-292" y="-780" as="targetPoint" />
          </mxGeometry>
        </mxCell>
        <mxCell id="B0L_o82z-orvweYoAsNA-274" value="" style="endArrow=none;html=1;entryX=0.971;entryY=0.69;entryDx=0;entryDy=0;entryPerimeter=0;exitX=0;exitY=0.3333333333333333;exitDx=0;exitDy=0;exitPerimeter=0;" edge="1" parent="1" source="B0L_o82z-orvweYoAsNA-215" target="B0L_o82z-orvweYoAsNA-252">
          <mxGeometry width="50" height="50" relative="1" as="geometry">
            <mxPoint x="-132" y="-730" as="sourcePoint" />
            <mxPoint x="-282" y="-770" as="targetPoint" />
          </mxGeometry>
        </mxCell>
        <mxCell id="B0L_o82z-orvweYoAsNA-275" value="" style="endArrow=none;html=1;entryX=1;entryY=0.5;entryDx=0;entryDy=0;entryPerimeter=0;exitX=0;exitY=0.3333333333333333;exitDx=0;exitDy=0;exitPerimeter=0;" edge="1" parent="1" source="B0L_o82z-orvweYoAsNA-215" target="B0L_o82z-orvweYoAsNA-247">
          <mxGeometry width="50" height="50" relative="1" as="geometry">
            <mxPoint x="-122" y="-720" as="sourcePoint" />
            <mxPoint x="-272" y="-760" as="targetPoint" />
          </mxGeometry>
        </mxCell>
        <mxCell id="B0L_o82z-orvweYoAsNA-276" value="" style="endArrow=none;html=1;entryX=1;entryY=0.5;entryDx=0;entryDy=0;entryPerimeter=0;exitX=0;exitY=0.3333333333333333;exitDx=0;exitDy=0;exitPerimeter=0;" edge="1" parent="1" source="B0L_o82z-orvweYoAsNA-215" target="B0L_o82z-orvweYoAsNA-246">
          <mxGeometry width="50" height="50" relative="1" as="geometry">
            <mxPoint x="-112" y="-710" as="sourcePoint" />
            <mxPoint x="-262" y="-750" as="targetPoint" />
          </mxGeometry>
        </mxCell>
        <mxCell id="B0L_o82z-orvweYoAsNA-277" value="" style="endArrow=none;html=1;entryX=1;entryY=0.5;entryDx=0;entryDy=0;entryPerimeter=0;exitX=0;exitY=0.3333333333333333;exitDx=0;exitDy=0;exitPerimeter=0;" edge="1" parent="1" source="B0L_o82z-orvweYoAsNA-215" target="B0L_o82z-orvweYoAsNA-225">
          <mxGeometry width="50" height="50" relative="1" as="geometry">
            <mxPoint x="-102" y="-700" as="sourcePoint" />
            <mxPoint x="-252" y="-740" as="targetPoint" />
          </mxGeometry>
        </mxCell>
        <mxCell id="B0L_o82z-orvweYoAsNA-278" value="" style="endArrow=none;html=1;entryX=1;entryY=0.5;entryDx=0;entryDy=0;entryPerimeter=0;exitX=0;exitY=0.3333333333333333;exitDx=0;exitDy=0;exitPerimeter=0;" edge="1" parent="1" source="B0L_o82z-orvweYoAsNA-215" target="B0L_o82z-orvweYoAsNA-226">
          <mxGeometry width="50" height="50" relative="1" as="geometry">
            <mxPoint x="-92" y="-690" as="sourcePoint" />
            <mxPoint x="-242" y="-730" as="targetPoint" />
          </mxGeometry>
        </mxCell>
        <mxCell id="B0L_o82z-orvweYoAsNA-279" value="" style="endArrow=none;html=1;entryX=0.5;entryY=1;entryDx=0;entryDy=0;entryPerimeter=0;exitX=0.5;exitY=0;exitDx=0;exitDy=0;exitPerimeter=0;" edge="1" parent="1" source="B0L_o82z-orvweYoAsNA-215" target="B0L_o82z-orvweYoAsNA-250">
          <mxGeometry width="50" height="50" relative="1" as="geometry">
            <mxPoint x="-82" y="-680" as="sourcePoint" />
            <mxPoint x="-232" y="-720" as="targetPoint" />
          </mxGeometry>
        </mxCell>
        <mxCell id="B0L_o82z-orvweYoAsNA-280" value="" style="endArrow=none;html=1;entryX=0.145;entryY=0.855;entryDx=0;entryDy=0;entryPerimeter=0;exitX=0.5;exitY=0;exitDx=0;exitDy=0;exitPerimeter=0;" edge="1" parent="1" source="B0L_o82z-orvweYoAsNA-215" target="B0L_o82z-orvweYoAsNA-255">
          <mxGeometry width="50" height="50" relative="1" as="geometry">
            <mxPoint x="-72" y="-670" as="sourcePoint" />
            <mxPoint x="-222" y="-710" as="targetPoint" />
          </mxGeometry>
        </mxCell>
        <mxCell id="B0L_o82z-orvweYoAsNA-281" value="" style="endArrow=none;html=1;entryX=0.5;entryY=1;entryDx=0;entryDy=0;entryPerimeter=0;exitX=0.5;exitY=0;exitDx=0;exitDy=0;exitPerimeter=0;" edge="1" parent="1" source="B0L_o82z-orvweYoAsNA-215" target="B0L_o82z-orvweYoAsNA-251">
          <mxGeometry width="50" height="50" relative="1" as="geometry">
            <mxPoint x="-62" y="-660" as="sourcePoint" />
            <mxPoint x="-212" y="-700" as="targetPoint" />
          </mxGeometry>
        </mxCell>
        <mxCell id="B0L_o82z-orvweYoAsNA-282" value="" style="endArrow=none;html=1;entryX=1;entryY=0.5;entryDx=0;entryDy=0;entryPerimeter=0;exitX=0;exitY=0.3333333333333333;exitDx=0;exitDy=0;exitPerimeter=0;" edge="1" parent="1" source="B0L_o82z-orvweYoAsNA-215" target="B0L_o82z-orvweYoAsNA-245">
          <mxGeometry width="50" height="50" relative="1" as="geometry">
            <mxPoint x="-121" y="20" as="sourcePoint" />
            <mxPoint x="-271" y="-20" as="targetPoint" />
          </mxGeometry>
        </mxCell>
        <mxCell id="B0L_o82z-orvweYoAsNA-283" value="" style="endArrow=none;html=1;entryX=1;entryY=1;entryDx=0;entryDy=0;entryPerimeter=0;exitX=0.145;exitY=0.145;exitDx=0;exitDy=0;exitPerimeter=0;" edge="1" parent="1" source="B0L_o82z-orvweYoAsNA-259" target="B0L_o82z-orvweYoAsNA-215">
          <mxGeometry width="50" height="50" relative="1" as="geometry">
            <mxPoint x="-111" y="30" as="sourcePoint" />
            <mxPoint x="-261" y="-10" as="targetPoint" />
          </mxGeometry>
        </mxCell>
        <mxCell id="B0L_o82z-orvweYoAsNA-284" value="" style="endArrow=none;html=1;exitX=0.781;exitY=0.056;exitDx=0;exitDy=0;exitPerimeter=0;entryX=1;entryY=1;entryDx=0;entryDy=0;entryPerimeter=0;" edge="1" parent="1" source="B0L_o82z-orvweYoAsNA-261" target="B0L_o82z-orvweYoAsNA-215">
          <mxGeometry width="50" height="50" relative="1" as="geometry">
            <mxPoint x="-101" y="40" as="sourcePoint" />
            <mxPoint x="-251" as="targetPoint" />
          </mxGeometry>
        </mxCell>
        <mxCell id="B0L_o82z-orvweYoAsNA-285" value="" style="endArrow=none;html=1;entryX=0.265;entryY=0.078;entryDx=0;entryDy=0;entryPerimeter=0;exitX=0;exitY=1;exitDx=0;exitDy=0;exitPerimeter=0;" edge="1" parent="1" source="B0L_o82z-orvweYoAsNA-215" target="B0L_o82z-orvweYoAsNA-258">
          <mxGeometry width="50" height="50" relative="1" as="geometry">
            <mxPoint x="-91" y="50" as="sourcePoint" />
            <mxPoint x="-241" y="10" as="targetPoint" />
          </mxGeometry>
        </mxCell>
        <mxCell id="B0L_o82z-orvweYoAsNA-286" value="" style="endArrow=none;html=1;entryX=0.5;entryY=0;entryDx=0;entryDy=0;entryPerimeter=0;exitX=0;exitY=1;exitDx=0;exitDy=0;exitPerimeter=0;" edge="1" parent="1" source="B0L_o82z-orvweYoAsNA-215" target="B0L_o82z-orvweYoAsNA-256">
          <mxGeometry width="50" height="50" relative="1" as="geometry">
            <mxPoint x="-81" y="60" as="sourcePoint" />
            <mxPoint x="-231" y="20" as="targetPoint" />
          </mxGeometry>
        </mxCell>
        <mxCell id="B0L_o82z-orvweYoAsNA-287" value="" style="endArrow=none;html=1;entryX=1;entryY=0.5;entryDx=0;entryDy=0;entryPerimeter=0;" edge="1" parent="1" target="B0L_o82z-orvweYoAsNA-257">
          <mxGeometry width="50" height="50" relative="1" as="geometry">
            <mxPoint x="-267" y="-320" as="sourcePoint" />
            <mxPoint x="-221" y="30" as="targetPoint" />
          </mxGeometry>
        </mxCell>
        <mxCell id="B0L_o82z-orvweYoAsNA-288" value="" style="endArrow=none;html=1;entryX=1;entryY=0.5;entryDx=0;entryDy=0;entryPerimeter=0;exitX=0;exitY=0.3333333333333333;exitDx=0;exitDy=0;exitPerimeter=0;" edge="1" parent="1" source="B0L_o82z-orvweYoAsNA-215" target="B0L_o82z-orvweYoAsNA-244">
          <mxGeometry width="50" height="50" relative="1" as="geometry">
            <mxPoint x="-61" y="80" as="sourcePoint" />
            <mxPoint x="-211" y="40" as="targetPoint" />
          </mxGeometry>
        </mxCell>
        <mxCell id="B0L_o82z-orvweYoAsNA-289" value="" style="endArrow=none;html=1;entryX=1;entryY=0.3333333333333333;entryDx=0;entryDy=0;entryPerimeter=0;exitX=0;exitY=0.5;exitDx=0;exitDy=0;exitPerimeter=0;" edge="1" parent="1" source="B0L_o82z-orvweYoAsNA-241" target="B0L_o82z-orvweYoAsNA-215">
          <mxGeometry width="50" height="50" relative="1" as="geometry">
            <mxPoint x="39" y="-310" as="sourcePoint" />
            <mxPoint x="-111" y="-350" as="targetPoint" />
          </mxGeometry>
        </mxCell>
        <mxCell id="B0L_o82z-orvweYoAsNA-290" value="" style="endArrow=none;html=1;entryX=1;entryY=0.3333333333333333;entryDx=0;entryDy=0;entryPerimeter=0;exitX=0;exitY=0.5;exitDx=0;exitDy=0;exitPerimeter=0;" edge="1" parent="1" source="B0L_o82z-orvweYoAsNA-240" target="B0L_o82z-orvweYoAsNA-215">
          <mxGeometry width="50" height="50" relative="1" as="geometry">
            <mxPoint x="49" y="-300" as="sourcePoint" />
            <mxPoint x="-101" y="-340" as="targetPoint" />
          </mxGeometry>
        </mxCell>
        <mxCell id="B0L_o82z-orvweYoAsNA-291" value="" style="endArrow=none;html=1;entryX=1;entryY=0.3333333333333333;entryDx=0;entryDy=0;entryPerimeter=0;exitX=0;exitY=0.5;exitDx=0;exitDy=0;exitPerimeter=0;" edge="1" parent="1" source="B0L_o82z-orvweYoAsNA-238" target="B0L_o82z-orvweYoAsNA-215">
          <mxGeometry width="50" height="50" relative="1" as="geometry">
            <mxPoint x="59" y="-290" as="sourcePoint" />
            <mxPoint x="-91" y="-330" as="targetPoint" />
          </mxGeometry>
        </mxCell>
        <mxCell id="B0L_o82z-orvweYoAsNA-292" value="" style="endArrow=none;html=1;entryX=1;entryY=0.3333333333333333;entryDx=0;entryDy=0;entryPerimeter=0;exitX=0;exitY=0.667;exitDx=0;exitDy=0;exitPerimeter=0;" edge="1" parent="1" source="B0L_o82z-orvweYoAsNA-223" target="B0L_o82z-orvweYoAsNA-215">
          <mxGeometry width="50" height="50" relative="1" as="geometry">
            <mxPoint x="69" y="-280" as="sourcePoint" />
            <mxPoint x="-81" y="-320" as="targetPoint" />
          </mxGeometry>
        </mxCell>
        <mxCell id="B0L_o82z-orvweYoAsNA-293" value="" style="endArrow=none;html=1;entryX=1;entryY=0.3333333333333333;entryDx=0;entryDy=0;entryPerimeter=0;exitX=0;exitY=0.5;exitDx=0;exitDy=0;exitPerimeter=0;" edge="1" parent="1" source="B0L_o82z-orvweYoAsNA-224" target="B0L_o82z-orvweYoAsNA-215">
          <mxGeometry width="50" height="50" relative="1" as="geometry">
            <mxPoint x="79" y="-270" as="sourcePoint" />
            <mxPoint x="-71" y="-310" as="targetPoint" />
          </mxGeometry>
        </mxCell>
        <mxCell id="B0L_o82z-orvweYoAsNA-294" value="" style="endArrow=none;html=1;entryX=1;entryY=0.3333333333333333;entryDx=0;entryDy=0;entryPerimeter=0;exitX=0;exitY=0.5;exitDx=0;exitDy=0;exitPerimeter=0;" edge="1" parent="1" source="B0L_o82z-orvweYoAsNA-239" target="B0L_o82z-orvweYoAsNA-215">
          <mxGeometry width="50" height="50" relative="1" as="geometry">
            <mxPoint x="89" y="-260" as="sourcePoint" />
            <mxPoint x="-61" y="-300" as="targetPoint" />
          </mxGeometry>
        </mxCell>
        <mxCell id="B0L_o82z-orvweYoAsNA-295" value="" style="endArrow=none;html=1;entryX=1;entryY=0.3333333333333333;entryDx=0;entryDy=0;entryPerimeter=0;exitX=0;exitY=0.5;exitDx=0;exitDy=0;exitPerimeter=0;" edge="1" parent="1" source="B0L_o82z-orvweYoAsNA-260" target="B0L_o82z-orvweYoAsNA-215">
          <mxGeometry width="50" height="50" relative="1" as="geometry">
            <mxPoint x="99" y="-250" as="sourcePoint" />
            <mxPoint x="-51" y="-290" as="targetPoint" />
          </mxGeometry>
        </mxCell>
        <mxCell id="B0L_o82z-orvweYoAsNA-296" value="" style="endArrow=none;html=1;entryX=1;entryY=0.3333333333333333;entryDx=0;entryDy=0;entryPerimeter=0;exitX=0;exitY=0.5;exitDx=0;exitDy=0;exitPerimeter=0;" edge="1" parent="1" source="B0L_o82z-orvweYoAsNA-243" target="B0L_o82z-orvweYoAsNA-215">
          <mxGeometry width="50" height="50" relative="1" as="geometry">
            <mxPoint x="109" y="-240" as="sourcePoint" />
            <mxPoint x="-41" y="-280" as="targetPoint" />
          </mxGeometry>
        </mxCell>
        <mxCell id="B0L_o82z-orvweYoAsNA-297" value="" style="endArrow=none;html=1;exitX=0;exitY=0.5;exitDx=0;exitDy=0;exitPerimeter=0;entryX=1;entryY=0.3333333333333333;entryDx=0;entryDy=0;entryPerimeter=0;" edge="1" parent="1" source="B0L_o82z-orvweYoAsNA-242" target="B0L_o82z-orvweYoAsNA-215">
          <mxGeometry width="50" height="50" relative="1" as="geometry">
            <mxPoint x="119" y="-230" as="sourcePoint" />
            <mxPoint x="-31" y="-270" as="targetPoint" />
          </mxGeometry>
        </mxCell>
        <mxCell id="B0L_o82z-orvweYoAsNA-298" value="" style="endArrow=none;html=1;exitX=0;exitY=0.5;exitDx=0;exitDy=0;exitPerimeter=0;entryX=1;entryY=0.3333333333333333;entryDx=0;entryDy=0;entryPerimeter=0;" edge="1" parent="1" source="B0L_o82z-orvweYoAsNA-217" target="B0L_o82z-orvweYoAsNA-215">
          <mxGeometry width="50" height="50" relative="1" as="geometry">
            <mxPoint x="53" y="-650" as="sourcePoint" />
            <mxPoint x="-97" y="-690" as="targetPoint" />
          </mxGeometry>
        </mxCell>
        <mxCell id="B0L_o82z-orvweYoAsNA-299" value="" style="endArrow=none;html=1;entryX=1;entryY=0.3333333333333333;entryDx=0;entryDy=0;entryPerimeter=0;exitX=0;exitY=0.5;exitDx=0;exitDy=0;exitPerimeter=0;" edge="1" parent="1" source="B0L_o82z-orvweYoAsNA-218" target="B0L_o82z-orvweYoAsNA-215">
          <mxGeometry width="50" height="50" relative="1" as="geometry">
            <mxPoint x="63" y="-640" as="sourcePoint" />
            <mxPoint x="-87" y="-679.9999999999998" as="targetPoint" />
          </mxGeometry>
        </mxCell>
        <mxCell id="B0L_o82z-orvweYoAsNA-300" value="" style="endArrow=none;html=1;exitX=0;exitY=0.5;exitDx=0;exitDy=0;exitPerimeter=0;entryX=1;entryY=0.3333333333333333;entryDx=0;entryDy=0;entryPerimeter=0;" edge="1" parent="1" source="B0L_o82z-orvweYoAsNA-216" target="B0L_o82z-orvweYoAsNA-215">
          <mxGeometry width="50" height="50" relative="1" as="geometry">
            <mxPoint x="73" y="-630" as="sourcePoint" />
            <mxPoint x="-77" y="-669.9999999999998" as="targetPoint" />
          </mxGeometry>
        </mxCell>
        <mxCell id="B0L_o82z-orvweYoAsNA-301" value="" style="endArrow=none;html=1;entryX=1;entryY=0.3333333333333333;entryDx=0;entryDy=0;entryPerimeter=0;exitX=0;exitY=0.5;exitDx=0;exitDy=0;exitPerimeter=0;" edge="1" parent="1" source="B0L_o82z-orvweYoAsNA-219" target="B0L_o82z-orvweYoAsNA-215">
          <mxGeometry width="50" height="50" relative="1" as="geometry">
            <mxPoint x="83" y="-620" as="sourcePoint" />
            <mxPoint x="-67" y="-659.9999999999998" as="targetPoint" />
          </mxGeometry>
        </mxCell>
        <mxCell id="B0L_o82z-orvweYoAsNA-302" value="" style="endArrow=none;html=1;entryX=1;entryY=0.3333333333333333;entryDx=0;entryDy=0;entryPerimeter=0;exitX=0;exitY=0.5;exitDx=0;exitDy=0;exitPerimeter=0;" edge="1" parent="1" source="B0L_o82z-orvweYoAsNA-220" target="B0L_o82z-orvweYoAsNA-215">
          <mxGeometry width="50" height="50" relative="1" as="geometry">
            <mxPoint x="93" y="-610" as="sourcePoint" />
            <mxPoint x="-57" y="-649.9999999999998" as="targetPoint" />
          </mxGeometry>
        </mxCell>
        <mxCell id="B0L_o82z-orvweYoAsNA-303" value="" style="endArrow=none;html=1;exitX=0;exitY=0.5;exitDx=0;exitDy=0;exitPerimeter=0;entryX=1;entryY=0.3333333333333333;entryDx=0;entryDy=0;entryPerimeter=0;" edge="1" parent="1" source="B0L_o82z-orvweYoAsNA-221" target="B0L_o82z-orvweYoAsNA-215">
          <mxGeometry width="50" height="50" relative="1" as="geometry">
            <mxPoint x="103" y="-600" as="sourcePoint" />
            <mxPoint x="-47" y="-639.9999999999998" as="targetPoint" />
          </mxGeometry>
        </mxCell>
        <mxCell id="B0L_o82z-orvweYoAsNA-304" value="" style="endArrow=none;html=1;entryX=1;entryY=0.3333333333333333;entryDx=0;entryDy=0;entryPerimeter=0;exitX=0;exitY=0.5;exitDx=0;exitDy=0;exitPerimeter=0;" edge="1" parent="1" source="B0L_o82z-orvweYoAsNA-222" target="B0L_o82z-orvweYoAsNA-215">
          <mxGeometry width="50" height="50" relative="1" as="geometry">
            <mxPoint x="113" y="-590" as="sourcePoint" />
            <mxPoint x="-37" y="-629.9999999999998" as="targetPoint" />
          </mxGeometry>
        </mxCell>
        <mxCell id="B0L_o82z-orvweYoAsNA-305" value="" style="endArrow=none;html=1;entryX=0;entryY=0.5;entryDx=0;entryDy=0;entryPerimeter=0;exitX=1;exitY=0.3333333333333333;exitDx=0;exitDy=0;exitPerimeter=0;" edge="1" parent="1" source="B0L_o82z-orvweYoAsNA-215" target="B0L_o82z-orvweYoAsNA-249">
          <mxGeometry width="50" height="50" relative="1" as="geometry">
            <mxPoint x="123" y="-580" as="sourcePoint" />
            <mxPoint x="-27" y="-619.9999999999998" as="targetPoint" />
          </mxGeometry>
        </mxCell>
        <mxCell id="B0L_o82z-orvweYoAsNA-306" value="" style="endArrow=none;html=1;entryX=0;entryY=0.5;entryDx=0;entryDy=0;entryPerimeter=0;exitX=1;exitY=0.3333333333333333;exitDx=0;exitDy=0;exitPerimeter=0;" edge="1" parent="1" source="B0L_o82z-orvweYoAsNA-215" target="B0L_o82z-orvweYoAsNA-254">
          <mxGeometry width="50" height="50" relative="1" as="geometry">
            <mxPoint x="133" y="-570" as="sourcePoint" />
            <mxPoint x="-17" y="-609.9999999999998" as="targetPoint" />
          </mxGeometry>
        </mxCell>
        <mxCell id="B0L_o82z-orvweYoAsNA-307" value="" style="endArrow=none;html=1;entryX=1;entryY=0.3333333333333333;entryDx=0;entryDy=0;entryPerimeter=0;exitX=0;exitY=0.5;exitDx=0;exitDy=0;exitPerimeter=0;" edge="1" parent="1" source="B0L_o82z-orvweYoAsNA-248" target="B0L_o82z-orvweYoAsNA-215">
          <mxGeometry width="50" height="50" relative="1" as="geometry">
            <mxPoint x="143" y="-560" as="sourcePoint" />
            <mxPoint x="-7" y="-599.9999999999998" as="targetPoint" />
          </mxGeometry>
        </mxCell>
      </root>
    </mxGraphModel>
  </diagram>
</mxfile>
